<?xml version="1.0" encoding="UTF-8"?>
<svg width="15px" height="15px" viewBox="0 0 15 15" version="1.1" xmlns="http://www.w3.org/2000/svg" xmlns:xlink="http://www.w3.org/1999/xlink">
    <!-- Generator: Sketch 52.5 (67469) - http://www.bohemiancoding.com/sketch -->
    <title>Fill 1</title>
    <desc>Created with Sketch.</desc>
    <g id="Page-1" stroke="none" stroke-width="1" fill="none" fill-rule="evenodd">
        <g id="Profile" transform="translate(-27.000000, -674.000000)" fill="#FF5757">
            <g id="Group-2" transform="translate(27.000000, 674.000000)">
                <path d="M9.2675771,9.2675771 C9.75586195,8.77929444 10,8.19010682 10,7.50000109 C10,6.80989318 9.75586195,6.22070556 9.2675771,5.7324229 C8.77929444,5.24413805 8.19010682,5 7.49999891,5 C6.80989318,5 6.22070556,5.24413805 5.7324229,5.7324229 C5.24413805,6.22070556 5,6.80989318 5,7.50000109 C5,8.19010682 5.24413805,8.77929444 5.7324229,9.2675771 C6.22070556,9.75586195 6.80989318,10 7.49999891,10 C8.19010682,10 8.77929444,9.75586195 9.2675771,9.2675771 Z M10.1554565,4.8445435 C10.8851564,5.57424129 11.25,6.459386 11.25,7.50000107 C11.25,8.540614 10.8851564,9.42575871 10.1554565,10.1554565 C9.42575871,10.8851564 8.540614,11.25 7.49999893,11.25 C6.459386,11.25 5.57424129,10.8851564 4.8445435,10.1554565 C4.11484357,9.42575871 3.75,8.540614 3.75,7.50000107 C3.75,6.459386 4.11484357,5.57424129 4.8445435,4.8445435 C5.57424129,4.11484357 6.459386,3.75 7.49999893,3.75 C8.540614,3.75 9.42575871,4.11484357 10.1554565,4.8445435 Z M11.0665757,2.68342425 C11.1888596,2.80570658 11.25,2.95289824 11.25,3.12499924 C11.25,3.29710176 11.1888596,3.4442919 11.0665757,3.56657575 C10.9442934,3.6888596 10.7971018,3.75 10.6250008,3.75 C10.4528982,3.75 10.3057081,3.6888596 10.1834243,3.56657575 C10.0611404,3.4442919 10,3.29710176 10,3.12499924 C10,2.95289824 10.0611404,2.80570658 10.1834243,2.68342425 C10.3057081,2.5611404 10.4528982,2.5 10.6250008,2.5 C10.7971018,2.5 10.9442934,2.5611404 11.0665757,2.68342425 Z M8.25307097,1.25743337 C7.79726251,1.25743337 7.54624136,1.25743337 7.49999864,1.25743337 C7.45375814,1.25743337 7.20108562,1.25578201 6.74197443,1.25247705 C6.28286102,1.24917432 5.93440476,1.24917432 5.69659011,1.25247705 C5.45877768,1.25578201 5.14004603,1.26569021 4.74038851,1.28220388 C4.34072876,1.29871978 4.00052934,1.33174934 3.71977692,1.38129258 C3.43902671,1.43083804 3.20286787,1.49194085 3.01129594,1.56460545 C2.68100028,1.69672593 2.3903441,1.88829342 2.13931851,2.13931901 C1.88829314,2.3903446 1.6967241,2.68100078 1.56460562,3.01129644 C1.49194035,3.20286837 1.43083643,3.43902721 1.38129208,3.71977963 C1.33174773,4.00052983 1.29871861,4.34073148 1.2822036,4.740389 C1.26568882,5.14004653 1.25578017,5.45877818 1.25247722,5.69659283 C1.24917426,5.93440526 1.24917426,6.28286152 1.25247722,6.74197493 C1.25578017,7.20108612 1.25743154,7.45375864 1.25743154,7.50000136 C1.25743154,7.54624186 1.25578017,7.79891438 1.25247722,8.25802557 C1.24917426,8.71713898 1.24917426,9.06559524 1.25247722,9.30340989 C1.25578017,9.54122232 1.26568882,9.85995397 1.2822036,10.2596115 C1.29871861,10.6592712 1.33174773,10.9994707 1.38129208,11.2802231 C1.43083643,11.5609733 1.49194035,11.7971321 1.56460562,11.9887041 C1.6967241,12.3189997 1.88829314,12.6096559 2.13931851,12.8606815 C2.3903441,13.1117069 2.68100028,13.3032759 3.01129594,13.4353944 C3.20286787,13.5080597 3.43902671,13.5691636 3.71977692,13.6187079 C4.00052934,13.6682523 4.34072876,13.7012814 4.74038851,13.7177964 C5.14004603,13.7343112 5.45877768,13.7442198 5.69659011,13.7475228 C5.93440476,13.7508257 6.28286102,13.7508257 6.74197443,13.7475228 C7.20108562,13.7442198 7.45375814,13.7425685 7.49999864,13.7425685 C7.54624136,13.7425685 7.79891388,13.7442198 8.25802507,13.7475228 C8.71713848,13.7508257 9.06559474,13.7508257 9.30340717,13.7475228 C9.54122182,13.7442198 9.85995347,13.7343112 10.259611,13.7177964 C10.6592685,13.7012814 10.9994702,13.6682523 11.2802204,13.6187079 C11.5609728,13.5691636 11.7971316,13.5080597 11.9887036,13.4353944 C12.3189992,13.3032759 12.6096554,13.1117069 12.860681,12.8606815 C13.1117066,12.6096559 13.3032741,12.3189997 13.4353945,11.9887041 C13.5080592,11.7971321 13.569162,11.5609733 13.6187074,11.2802231 C13.6682507,10.9994707 13.7012802,10.6592712 13.7177961,10.2596115 C13.7343098,9.85995397 13.744218,9.54122232 13.7475229,9.30340989 C13.7508257,9.06559524 13.7508257,8.71713898 13.7475229,8.25802557 C13.744218,7.79891438 13.7425666,7.54624186 13.7425666,7.50000136 C13.7425666,7.45375864 13.744218,7.20108612 13.7475229,6.74197493 C13.7508257,6.28286152 13.7508257,5.93440526 13.7475229,5.69659283 C13.744218,5.45877818 13.7343098,5.14004653 13.7177961,4.740389 C13.7012802,4.34073148 13.6682507,4.00052983 13.6187074,3.71977963 C13.569162,3.43902721 13.5080592,3.20286837 13.4353945,3.01129644 C13.3032741,2.68100078 13.1117066,2.3903446 12.860681,2.13931901 C12.6096554,1.88829342 12.3189992,1.69672593 11.9887036,1.56460545 C11.7971316,1.49194085 11.5609728,1.43083804 11.2802204,1.38129258 C10.9994702,1.33174934 10.6592685,1.29871978 10.259611,1.28220388 C9.85995347,1.26569021 9.54122182,1.25578201 9.30340717,1.25247705 C9.06559474,1.24917432 8.71548711,1.25082568 8.25307097,1.25743337 Z M14.9511706,4.4042971 C14.9837228,4.97721646 15,6.00910831 15,7.50000109 C15,8.99089388 14.9837228,10.0227835 14.9511706,10.5957029 C14.8860663,11.9498769 14.4824244,12.9980431 13.7402341,13.7402343 C12.9980438,14.4824257 11.9498769,14.8860674 10.5957029,14.9511719 C10.0227835,14.9837241 8.99089169,15 7.49999891,15 C6.00910612,15 4.97721646,14.9837241 4.4042971,14.9511719 C3.05012306,14.8860674 2.00195686,14.4824257 1.25976569,13.7402343 C0.517574302,12.9980431 0.11393261,11.9498769 0.0488281271,10.5957029 C0.016275879,10.0227835 0,8.99089388 0,7.50000109 C0,6.00910831 0.016275879,4.97721646 0.0488281271,4.4042971 C0.11393261,3.05012306 0.517574302,2.00195621 1.25976569,1.25976591 C2.00195686,0.517575614 3.05012306,0.113933748 4.4042971,0.048829374 C4.97721646,0.0162771872 6.00910612,0 7.49999891,0 C8.99089169,0 10.0227835,0.0162771872 10.5957029,0.048829374 C11.9498769,0.113933748 12.9980438,0.517575614 13.7402341,1.25976591 C14.4824244,2.00195621 14.8860663,3.05012306 14.9511706,4.4042971 Z" id="Fill-1"></path>
            </g>
        </g>
    </g>
</svg>